<svg width="40" height="40" viewBox="0 0 40 40" fill="none" xmlns="http://www.w3.org/2000/svg">
<path d="M21.6542 20.9091C19.0786 20.9091 16.9907 18.467 16.9907 15.4546C16.9907 12.4421 19.0786 10 21.6542 10C24.2298 10 26.3177 12.4421 26.3177 15.4546C26.3177 18.467 24.2298 20.9091 21.6542 20.9091Z" fill="#0A3624"/>
<path fill-rule="evenodd" clip-rule="evenodd" d="M19.7613 0C11.0043 0 3.90539 6.91924 3.90539 15.4546C3.90539 23.9899 11.0043 30.9091 19.7613 30.9091C28.5183 30.9091 35.6173 23.9899 35.6173 15.4546C35.6173 6.91924 28.5183 0 19.7613 0ZM9.50161 15.4546C9.50161 9.9317 14.095 5.45455 19.7613 5.45455C25.4276 5.45455 30.0211 9.9317 30.0211 15.4546C30.0211 20.9774 25.4276 25.4546 19.7613 25.4546C14.095 25.4546 9.50161 20.9774 9.50161 15.4546Z" fill="#0A3624"/>
<path d="M35.9608 30.757C36.9286 31.9313 36.7364 33.6479 35.5315 34.5912C33.6733 36.046 31.6089 37.2391 29.3984 38.1316C26.3431 39.3651 23.0684 40 19.7613 40C16.4542 40 13.1795 39.3651 10.1242 38.1316C7.93812 37.249 5.89498 36.0723 4.05283 34.6394C2.84497 33.6999 2.64725 31.9838 3.6112 30.8066C4.57514 29.6293 6.33574 29.4366 7.5436 30.3761C8.97639 31.4906 10.5655 32.4058 12.2658 33.0922C14.6421 34.0517 17.1891 34.5455 19.7613 34.5455C22.3335 34.5455 24.8804 34.0517 27.2568 33.0922C28.9761 32.3981 30.5818 31.4701 32.027 30.3386C33.2319 29.3954 34.9931 29.5827 35.9608 30.757Z" fill="#0A3624"/>
</svg>
