<svg width="180" height="40" viewBox="0 0 180 40" fill="none" xmlns="http://www.w3.org/2000/svg">
<g clip-path="url(#clip0_9976_10)">
<path d="M18.6542 20.9091C16.0786 20.9091 13.9907 18.467 13.9907 15.4546C13.9907 12.4421 16.0786 10 18.6542 10C21.2298 10 23.3177 12.4421 23.3177 15.4546C23.3177 18.467 21.2298 20.9091 18.6542 20.9091Z" fill="#0A3624"/>
<path fill-rule="evenodd" clip-rule="evenodd" d="M16.7613 0C8.00434 0 0.905391 6.91924 0.905391 15.4546C0.905391 23.9899 8.00434 30.9091 16.7613 30.9091C25.5183 30.9091 32.6173 23.9899 32.6173 15.4546C32.6173 6.91924 25.5183 0 16.7613 0ZM6.50161 15.4546C6.50161 9.9317 11.095 5.45455 16.7613 5.45455C22.4276 5.45455 27.0211 9.9317 27.0211 15.4546C27.0211 20.9774 22.4276 25.4546 16.7613 25.4546C11.095 25.4546 6.50161 20.9774 6.50161 15.4546Z" fill="#0A3624"/>
<path d="M32.9608 30.757C33.9286 31.9313 33.7364 33.6479 32.5315 34.5912C30.6733 36.046 28.6089 37.2391 26.3984 38.1316C23.3431 39.3651 20.0684 40 16.7613 40C13.4542 40 10.1795 39.3651 7.12418 38.1316C4.93812 37.249 2.89498 36.0723 1.05283 34.6394C-0.155026 33.6999 -0.352753 31.9838 0.611195 30.8066C1.57514 29.6293 3.33574 29.4366 4.5436 30.3761C5.97639 31.4906 7.5655 32.4058 9.26576 33.0922C11.6421 34.0517 14.1891 34.5455 16.7613 34.5455C19.3335 34.5455 21.8804 34.0517 24.2568 33.0922C25.9761 32.3981 27.5818 31.4701 29.027 30.3386C30.2319 29.3954 31.9931 29.5827 32.9608 30.757Z" fill="#0A3624"/>
<path d="M63.1162 18.1682H53.9859V23.1318H56.3867C56.3867 24.55 55.9138 26.5355 54.0951 26.5355C51.6198 26.5355 51.621 22.4666 51.6215 20.7559L51.6215 20.6855C51.6215 18.8773 51.6215 13.4527 54.3133 13.4527C55.5864 13.4527 56.1321 14.8355 56.2412 15.8637L62.6069 13.5946C61.0428 10.0846 58.351 7.74456 54.2769 7.74456C47.2201 7.74456 44.9285 14.3037 44.9285 20.1182C44.9285 25.9682 47.2565 32.2437 54.2769 32.2437C57.3325 32.2437 60.0606 30.8609 61.5156 28.1664C62.9343 25.5073 63.1162 22.0682 63.1162 19.1255V18.1682Z" fill="#0A3624"/>
<path fill-rule="evenodd" clip-rule="evenodd" d="M82.6341 19.7637C82.6341 14.2682 80.1242 7.74456 73.5039 7.74456C66.8472 7.74456 64.1918 14.1973 64.1918 19.7637C64.1918 22.8837 64.8102 26.6064 66.9199 29.0882C68.5568 31.0028 70.9576 32.2437 73.5403 32.2437C80.3425 32.2437 82.6341 25.2946 82.6341 19.7637ZM75.8319 20.0118C75.8319 21.5364 75.65 26.2518 73.3948 26.2518C71.1395 26.2518 70.994 21.5009 70.994 19.9764C70.994 18.4518 71.2122 13.7009 73.4675 13.7009C75.7228 13.7009 75.8319 18.4873 75.8319 20.0118Z" fill="#0A3624"/>
<path fill-rule="evenodd" clip-rule="evenodd" d="M102.182 19.7637C102.182 14.2682 99.6717 7.74456 93.0514 7.74456C86.3947 7.74456 83.7393 14.1973 83.7393 19.7637C83.7393 22.8837 84.3577 26.6064 86.4675 29.0882C88.1043 31.0028 90.5051 32.2437 93.0878 32.2437C99.89 32.2437 102.182 25.2946 102.182 19.7637ZM95.3794 20.0118C95.3794 21.5364 95.1976 26.2518 92.9423 26.2518C90.687 26.2518 90.5415 21.5009 90.5415 19.9764C90.5415 18.4518 90.7598 13.7009 93.015 13.7009C95.2703 13.7009 95.3794 18.4873 95.3794 20.0118Z" fill="#0A3624"/>
<path fill-rule="evenodd" clip-rule="evenodd" d="M103.905 8.17001V31.8182H110.016C113.945 31.8182 116.964 30.79 118.965 27.28C120.238 25.0818 120.638 22.5291 120.638 20.0118C120.638 13.1691 116.964 8.17001 109.543 8.17001H103.905ZM110.453 14.0909C113.472 14.0909 113.945 17.9909 113.945 20.1891C113.945 22.4937 113.508 26.0037 110.453 26.11V14.0909Z" fill="#0A3624"/>
<path fill-rule="evenodd" clip-rule="evenodd" d="M122.352 8.17001V31.8182H131.518C135.701 31.8182 138.83 29.23 138.83 25.0464C138.83 21.82 137.084 20.0827 133.846 19.6927C136.793 19.4446 138.357 17.7427 138.357 14.8709C138.357 12.5664 137.229 10.4036 135.156 9.23365C133.592 8.34728 131.736 8.17001 129.954 8.17001H122.352ZM128.899 13.3109C129.117 13.2755 129.336 13.2755 129.554 13.2755C130.9 13.2755 131.882 13.9137 131.882 15.3318C131.882 16.7855 130.645 17.3882 129.299 17.3882C129.154 17.3882 129.045 17.3882 128.899 17.3527V13.3109ZM128.899 22.1746C128.99 22.1746 129.072 22.1657 129.154 22.1568C129.236 22.148 129.317 22.1391 129.408 22.1391C130.9 22.1391 132.137 22.8127 132.137 24.4082C132.137 25.9682 130.936 26.7127 129.445 26.7127C129.263 26.7127 129.081 26.7127 128.899 26.6773V22.1746Z" fill="#0A3624"/>
<path d="M147.097 31.8182V8.17001H140.549V31.8182H147.097Z" fill="#0A3624"/>
<path fill-rule="evenodd" clip-rule="evenodd" d="M149.404 8.17001V31.8182H155.515C159.444 31.8182 162.463 30.79 164.464 27.28C165.737 25.0818 166.137 22.5291 166.137 20.0118C166.137 13.1691 162.463 8.17001 155.042 8.17001H149.404ZM155.952 14.0909C158.971 14.0909 159.444 17.9909 159.444 20.1891C159.444 22.4937 159.007 26.0037 155.952 26.11V14.0909Z" fill="#0A3624"/>
<path d="M179.309 8.95001C177.854 8.20547 176.253 7.74456 174.616 7.74456C170.251 7.74456 167.232 11.3964 167.232 15.5091C167.232 19.1446 169.509 20.8744 171.299 22.235C172.46 23.1169 173.416 23.8437 173.416 24.8337C173.416 25.8618 172.434 26.3937 171.488 26.3937C169.742 26.3937 168.323 25.1173 167.341 23.8055V31.2155C168.906 31.8537 170.579 32.2437 172.288 32.2437C176.944 32.2437 180 28.6273 180 24.2309C180 20.4349 177.631 18.733 175.809 17.4237C174.669 16.6052 173.743 15.9401 173.743 15.0127C173.743 14.1264 174.616 13.5946 175.453 13.5946C177.09 13.5946 178.472 14.9418 179.309 16.1827V8.95001Z" fill="#0A3624"/>
</g>
<defs>
<clipPath id="clip0_9976_10">
<rect width="180" height="40" fill="white"/>
</clipPath>
</defs>
</svg>
